<svg width="16" height="16" viewBox="0 0 16 16" fill="none" xmlns="http://www.w3.org/2000/svg">
<path d="M8 0.650391C8.25042 0.650391 8.49113 0.728486 8.68652 0.869141L14.9092 5.34863C15.049 5.44933 15.1597 5.57851 15.2354 5.72363C15.3109 5.86867 15.3496 6.02708 15.3496 6.18652V14.293C15.3496 14.5644 15.238 14.8309 15.0293 15.0312C14.8197 15.2324 14.53 15.3495 14.2227 15.3496H10.7559C10.6606 15.3496 10.5743 15.3131 10.5146 15.2559C10.456 15.1995 10.4278 15.1293 10.4277 15.0615V10.8799C10.4277 10.2461 10.165 9.6438 9.70703 9.2041C9.24991 8.76537 8.63543 8.52344 8 8.52344C7.36457 8.52344 6.75009 8.76537 6.29297 9.2041C5.83495 9.6438 5.5723 10.2461 5.57227 10.8799V15.0615C5.57221 15.1293 5.54402 15.1995 5.48535 15.2559C5.42573 15.3131 5.33943 15.3496 5.24414 15.3496H1.77734C1.47003 15.3495 1.18026 15.2324 0.970703 15.0312C0.761992 14.8309 0.650391 14.5644 0.650391 14.293V6.18652C0.650414 6.02708 0.689108 5.86867 0.764648 5.72363C0.840281 5.57851 0.950959 5.44933 1.09082 5.34863L7.31348 0.869141C7.50887 0.728486 7.74958 0.650391 8 0.650391Z" stroke="#9B9BA1" stroke-width="1.3"/>
</svg>
